<svg width="512" height="512" viewBox="0 0 512 512" fill="none" xmlns="http://www.w3.org/2000/svg">
<path d="M437.497 386.601L306.897 256.001L437.497 125.401C451.597 111.301 451.597 88.6008 437.497 74.5008C423.397 60.4008 400.697 60.4008 386.597 74.5008L255.997 205.101L125.397 74.5008C111.297 60.4008 88.5969 60.4008 74.4969 74.5008C60.3969 88.6008 60.3969 111.301 74.4969 125.401L205.097 256.001L74.4969 386.601C60.3969 400.701 60.3969 423.401 74.4969 437.501C88.5969 451.601 111.297 451.601 125.397 437.501L255.997 306.901L386.597 437.501C400.697 451.601 423.397 451.601 437.497 437.501C451.497 423.401 451.497 400.601 437.497 386.601Z" fill="white"/>
</svg>
